<mxfile host="app.diagrams.net" modified="2024-02-23T13:05:28.442Z" agent="Mozilla/5.0 (X11; Linux x86_64) AppleWebKit/537.36 (KHTML, like Gecko) Chrome/121.0.0.0 Safari/537.36" etag="Y8JgEgW-81gufg8MmOkB" version="23.1.6" type="github">
  <diagram id="prtHgNgQTEPvFCAcTncT" name="Page-1">
    <mxGraphModel dx="904" dy="544" grid="1" gridSize="10" guides="1" tooltips="1" connect="1" arrows="1" fold="1" page="1" pageScale="1" pageWidth="827" pageHeight="1169" math="0" shadow="0">
      <root>
        <mxCell id="0" />
        <mxCell id="1" parent="0" />
        <mxCell id="8UjhFsNZFn08s7CL7qMy-6" value="" style="edgeStyle=orthogonalEdgeStyle;rounded=0;orthogonalLoop=1;jettySize=auto;html=1;entryX=0.5;entryY=0;entryDx=0;entryDy=0;" edge="1" parent="1" source="8UjhFsNZFn08s7CL7qMy-3" target="8UjhFsNZFn08s7CL7qMy-7">
          <mxGeometry relative="1" as="geometry">
            <mxPoint x="440" y="240" as="targetPoint" />
          </mxGeometry>
        </mxCell>
        <mxCell id="8UjhFsNZFn08s7CL7qMy-18" style="edgeStyle=orthogonalEdgeStyle;rounded=0;orthogonalLoop=1;jettySize=auto;html=1;entryX=0.5;entryY=0;entryDx=0;entryDy=0;" edge="1" parent="1" source="8UjhFsNZFn08s7CL7qMy-3" target="8UjhFsNZFn08s7CL7qMy-15">
          <mxGeometry relative="1" as="geometry" />
        </mxCell>
        <mxCell id="8UjhFsNZFn08s7CL7qMy-21" style="edgeStyle=orthogonalEdgeStyle;rounded=0;orthogonalLoop=1;jettySize=auto;html=1;entryX=0.5;entryY=0;entryDx=0;entryDy=0;" edge="1" parent="1" source="8UjhFsNZFn08s7CL7qMy-3" target="8UjhFsNZFn08s7CL7qMy-19">
          <mxGeometry relative="1" as="geometry" />
        </mxCell>
        <mxCell id="8UjhFsNZFn08s7CL7qMy-22" style="edgeStyle=orthogonalEdgeStyle;rounded=0;orthogonalLoop=1;jettySize=auto;html=1;" edge="1" parent="1" source="8UjhFsNZFn08s7CL7qMy-3" target="8UjhFsNZFn08s7CL7qMy-9">
          <mxGeometry relative="1" as="geometry" />
        </mxCell>
        <mxCell id="8UjhFsNZFn08s7CL7qMy-3" value="YourTube" style="rounded=0;whiteSpace=wrap;html=1;" vertex="1" parent="1">
          <mxGeometry y="80" width="630" height="80" as="geometry" />
        </mxCell>
        <mxCell id="8UjhFsNZFn08s7CL7qMy-7" value="" style="whiteSpace=wrap;html=1;rounded=0;" vertex="1" parent="1">
          <mxGeometry x="340" y="320" width="120" height="60" as="geometry" />
        </mxCell>
        <mxCell id="8UjhFsNZFn08s7CL7qMy-9" value="" style="whiteSpace=wrap;html=1;rounded=0;" vertex="1" parent="1">
          <mxGeometry x="170" y="320" width="120" height="60" as="geometry" />
        </mxCell>
        <mxCell id="8UjhFsNZFn08s7CL7qMy-15" value="" style="whiteSpace=wrap;html=1;rounded=0;" vertex="1" parent="1">
          <mxGeometry y="320" width="120" height="60" as="geometry" />
        </mxCell>
        <mxCell id="8UjhFsNZFn08s7CL7qMy-19" value="" style="whiteSpace=wrap;html=1;rounded=0;" vertex="1" parent="1">
          <mxGeometry x="510" y="320" width="120" height="60" as="geometry" />
        </mxCell>
      </root>
    </mxGraphModel>
  </diagram>
</mxfile>
